<svg xmlns="http://www.w3.org/2000/svg" xmlns:xlink="http://www.w3.org/1999/xlink" version="1.1" id="Layer_1" x="0px" y="0px" width="100px" height="100px" viewBox="0 0 100 100" enable-background="new 0 0 100 100" xml:space="preserve">
<path d="M94.241,51.463c0,0-3.366,0.258-4.058,0c0,0,2.59-1.813,3.712-2.071c0,0,1.382-0.691,0-1.382c0,0-4.575-3.798-5.697-4.402  c0,0-7.597-5.008-16.057-6.215c0,0-1.468-4.834-5.267-8.892h-1.036v0.863h-0.862v0.951l-1.037,0.518l-0.518,0.776h-0.949  l-0.519,0.864h-0.949l-0.777,0.777l-1.036-0.085l-0.518,0.431l-1.38,0.085l-0.864,0.087l-0.863-0.087l-0.69,0.52h-1.209  l-0.604,0.432h-0.776l-0.518,0.518l-1.122,0.344l-0.951,1.295c0,0-2.33,1.467-3.884-0.346c0,0-5.438-5.266-9.841-5.352  c0,0,3.28,1.727,5.697,5.525c0,0,1.122,2.245-1.554,3.108c0,0-9.495,4.145-12.173,5.353c0,0-7.595,3.107-10.358,3.107  c0,0-1.469,0-2.332-1.208c0,0-5.957-8.115-11.481-9.755c0,0,4.316,6.043,5.957,10.446c0,0,0.949,2.763-0.173,5.092  c0,0-4.316,8.287-5.697,9.842c0,0,4.834-1.383,10.273-9.324c0,0,1.813-2.935,3.539-2.677c0,0,5.699,0.779,10.619,3.972  c0,0,5.87,3.541,8.288,4.834c0,0,2.763,1.555,1.554,3.023c0,0-3.281,3.711-6.303,4.486c0,0,1.986,0.691,8.201-2.762  c0,0,2.418-2.244,5.353-1.641c0,0,9.84,2.418,19.251,1.123l-2.85,4.488c0,0,1.9-0.26,3.195-1.121c0,0,0.517,3.367,1.295,4.402  c0,0,2.936-1.984,4.488-8.461c0,0,10.273-1.984,16.144-5.266c0,0,6.906-4.402,7.771-5.266  C94.674,52.412,95.277,51.377,94.241,51.463z M86.27,48.931c-0.699,0-1.265-0.566-1.265-1.265c0-0.7,0.565-1.267,1.265-1.267  s1.267,0.567,1.267,1.267C87.536,48.364,86.969,48.931,86.27,48.931z"/>
</svg>